<svg xmlns="http://www.w3.org/2000/svg" width="48" height="48" viewBox="0 0 48 48">
  <!-- Pin base -->
  <path d="M24 4c-7.73 0-14 6.27-14 14 0 10.5 14 26 14 26s14-15.5 14-26c0-7.73-6.27-14-14-14z" fill="#FF6B00" stroke="#ffffff" stroke-width="2"/>
  
  <!-- Bus station icon -->
  <g transform="translate(12, 10)">
    <!-- Bus outline -->
    <rect x="2" y="2" width="20" height="16" rx="2" ry="2" fill="#ffffff" stroke="#ffffff" stroke-width="1"/>
    
    <!-- Bus body -->
    <rect x="3" y="3" width="18" height="14" rx="1" ry="1" fill="#FF6B00"/>
    
    <!-- Windows -->
    <rect x="5" y="5" width="4" height="3" fill="#ffffff"/>
    <rect x="11" y="5" width="4" height="3" fill="#ffffff"/>
    <rect x="17" y="5" width="2" height="3" fill="#ffffff"/>
    
    <!-- Door -->
    <rect x="5" y="12" width="6" height="4" fill="#ffffff"/>
    
    <!-- Wheels -->
    <circle cx="7" cy="19" r="2" fill="#ffffff"/>
    <circle cx="17" cy="19" r="2" fill="#ffffff"/>
    
    <!-- Roof rack -->
    <rect x="4" y="1" width="16" height="1" fill="#ffffff"/>
  </g>
</svg>

